# xmcd CD database file
#
# Track frame offsets:
#	150
#	1532
#	29832
#	30578
#	62605
#	88202
#	123813
#	144853
#	146580
#	167702
#
# Disc length: 2735 seconds
#
# Revision: 0
# Processed by: cddbd v1.5.2PL0 Copyright (c) Steve Scherf et al.
# Submitted via: CDex 1.70beta2
#
DISCID=7a0aad0a
DTITLE=Don Burrows Quarteet - Live in Coffs Harbour Boot Leg 1988 09 24
DYEAR=1988
DGENRE=Jazz
TTITLE0=Don Burrows - 10 Intro to tune
TTITLE1=Don Burrows - 11 The Rain on Water Japanise Tune
TTITLE2=Don Burrows - 12 Into to tune
TTITLE3=Don Burrows - 13 A Stairway to the Stars
TTITLE4=Don Burrows - 14
TTITLE5=Don Burrows - 15 Street of Dreams
TTITLE6=Don Burrows - 16
TTITLE7=Don Burrows - 17 Talk
TTITLE8=Don Burrows - 18 Quados Franchesco Tagar
TTITLE9=Don Burrows - 19
EXTD=YEAR: 1988
EXTT0=
EXTT1=
EXTT2=
EXTT3=
EXTT4=
EXTT5=
EXTT6=
EXTT7=
EXTT8=
EXTT9=
PLAYORDER=
